<?xml version="1.0" standalone="no"?>
<!DOCTYPE svg PUBLIC "-//W3C//DTD SVG 20010904//EN"
 "http://www.w3.org/TR/2001/REC-SVG-20010904/DTD/svg10.dtd">
<svg version="1.0" xmlns="http://www.w3.org/2000/svg"
 width="360.000000pt" height="322.000000pt" viewBox="0 0 360.000000 322.000000"
 preserveAspectRatio="xMidYMid meet">

<g transform="translate(0.000000,322.000000) scale(0.100000,-0.100000)"
fill="#000000" stroke="none">
<path d="M2249 2879 c-252 -59 -449 -286 -449 -516 l0 -66 70 5 c223 16 440
272 440 520 0 73 1 72 -61 57z"/>
<path d="M2160 2256 c-30 -7 -117 -34 -194 -61 -160 -56 -149 -57 -351 15
-143 52 -239 62 -348 36 -241 -57 -421 -248 -489 -521 -31 -126 -31 -335 1
-485 65 -308 215 -603 402 -792 140 -140 217 -153 443 -74 125 43 148 48 225
48 87 0 100 -3 279 -66 91 -32 196 -35 257 -7 70 32 140 96 218 200 96 127
150 220 203 348 l43 102 -56 31 c-74 42 -157 120 -205 194 -96 148 -113 369
-40 536 30 70 105 162 171 210 l60 44 -20 27 c-62 88 -191 172 -314 205 -81
21 -217 26 -285 10z"/>
</g>
</svg>
