<?xml version="1.0" standalone="no"?>
<!DOCTYPE svg PUBLIC "-//W3C//DTD SVG 20010904//EN"
 "http://www.w3.org/TR/2001/REC-SVG-20010904/DTD/svg10.dtd">
<svg version="1.0" xmlns="http://www.w3.org/2000/svg"
 width="348.000000pt" height="261.000000pt" viewBox="0 0 348.000000 261.000000"
 preserveAspectRatio="xMidYMid meet">

<g transform="translate(0.000000,261.000000) scale(0.100000,-0.100000)"
fill="#000000" stroke="none">
<path d="M1266 2375 c-252 -46 -460 -86 -463 -89 -2 -2 -3 -13 -1 -24 3 -18
25 -15 448 60 245 43 461 78 480 79 19 0 233 -33 476 -75 242 -42 448 -76 457
-76 30 0 20 38 -10 44 -16 3 -194 35 -398 71 -203 37 -404 73 -445 81 -41 8
-77 14 -80 13 -3 -1 -211 -39 -464 -84z"/>
<path d="M1405 2290 c-181 -31 -392 -67 -468 -80 l-138 -24 4 -405 3 -406 28
-95 c132 -462 485 -951 840 -1164 l58 -35 78 39 c335 168 681 617 804 1041 58
203 59 207 63 630 l5 396 -199 32 c-109 19 -322 54 -473 80 l-275 47 -330 -56z
m695 -84 c124 -24 289 -71 408 -117 l104 -41 -5 -342 -4 -341 -31 -115 c-69
-257 -173 -464 -341 -680 -124 -160 -310 -324 -441 -390 l-58 -29 -83 57
c-111 75 -307 270 -406 405 -141 191 -251 395 -316 587 -58 170 -67 245 -67
565 0 260 1 283 18 288 9 3 69 24 132 47 132 48 315 94 451 115 126 19 519 13
639 -9z"/>
<path d="M1690 2200 c0 -11 -4 -20 -10 -20 -5 0 -10 4 -10 9 0 5 -7 12 -16 15
-11 4 -14 0 -12 -17 2 -18 -1 -21 -21 -19 -15 2 -21 0 -17 -7 4 -6 2 -11 -3
-11 -15 0 -14 -27 1 -32 12 -4 -99 -78 -117 -78 -7 0 -21 -11 -34 -23 -27 -29
-19 -57 17 -57 24 0 25 0 7 -20 -18 -20 -17 -20 9 -20 15 0 42 6 61 14 18 8
36 12 39 9 3 -4 21 -9 40 -12 l35 -6 -45 -91 c-45 -93 -55 -106 -132 -170
l-42 -36 -63 41 c-100 65 -154 54 -163 -34 -3 -31 -16 -65 -32 -89 -21 -31
-27 -51 -28 -105 0 -36 -4 -74 -9 -83 -9 -22 12 -24 38 -4 13 10 17 28 17 84
0 59 4 75 24 99 13 15 31 43 41 62 l17 35 15 -30 c9 -16 25 -39 36 -51 l20
-23 -55 0 c-77 0 -82 -9 -75 -123 3 -50 10 -103 17 -117 39 -86 67 -119 103
-120 14 0 17 9 17 44 0 38 -3 45 -22 48 -14 2 -22 11 -23 26 -1 13 -8 28 -15
32 -7 5 -15 33 -18 65 -5 56 -4 57 19 50 13 -4 46 -23 72 -41 27 -19 61 -34
76 -34 18 0 31 -9 42 -28 9 -16 51 -52 94 -81 l79 -52 -3 -54 c-3 -66 22 -127
80 -196 32 -39 38 -50 25 -55 -19 -7 -144 12 -199 31 -47 17 -127 20 -127 6 0
-6 16 -22 36 -37 30 -23 47 -28 107 -30 40 -2 110 -14 157 -28 78 -23 86 -24
97 -9 15 19 15 19 31 -30 13 -36 12 -38 -22 -80 -19 -24 -58 -64 -86 -89 -40
-36 -50 -52 -50 -77 0 -34 8 -37 57 -19 21 8 33 19 33 31 0 27 40 75 114 136
36 30 66 62 66 72 0 9 -9 28 -20 42 -11 14 -20 32 -20 41 0 9 27 43 59 75 56
56 81 89 81 107 0 5 -5 3 -12 -4 -19 -19 -30 -14 -18 7 5 11 10 33 10 50 0 48
20 48 21 -1 l1 -43 13 35 14 35 -6 -41 c-3 -23 -1 -50 5 -60 8 -15 11 -13 17
14 3 18 11 34 16 37 15 10 10 -32 -12 -87 -17 -45 -19 -56 -7 -78 12 -25 13
-25 16 14 2 22 12 52 23 67 10 15 23 37 28 50 7 18 10 20 14 9 19 -56 20 -56
29 -15 5 22 6 54 3 71 -4 25 0 35 26 60 58 55 64 76 64 226 0 76 -2 138 -5
138 -3 0 -16 -7 -28 -16 -30 -21 -29 -4 5 61 17 34 23 59 19 71 -7 17 -9 16
-23 -11 -19 -36 -43 -65 -55 -65 -15 0 -8 55 11 93 24 46 12 47 -27 2 -53 -59
-66 -146 -35 -232 9 -26 17 -78 17 -115 1 -57 -2 -70 -24 -93 -14 -15 -37 -33
-52 -41 -27 -14 -28 -14 -28 14 0 41 -29 73 -130 148 -49 35 -102 80 -118 98
-29 34 -59 102 -49 113 10 9 77 -18 107 -44 36 -30 38 -18 5 31 -13 20 -19 36
-13 36 7 0 6 5 -2 15 -15 18 1 21 31 5 25 -14 24 -2 -3 28 l-23 25 23 -6 c26
-6 28 1 6 32 -16 23 -16 23 7 17 21 -6 22 -5 7 6 -9 7 -25 19 -35 26 -10 7
-12 10 -5 7 7 -4 22 -3 33 0 20 7 20 8 -7 36 -31 33 -27 49 8 25 12 -9 26 -16
30 -16 11 0 -18 47 -51 83 -13 15 -20 27 -14 27 6 0 16 -7 23 -15 22 -27 32
-16 11 11 -26 33 -28 59 -3 49 9 -4 31 -10 47 -12 27 -4 28 -3 10 8 -11 7 -31
23 -44 36 -22 21 -22 23 -5 24 17 0 17 2 -3 16 -31 21 -32 48 -2 32 34 -18 19
12 -19 37 -23 16 -28 24 -19 33 6 6 17 11 25 11 7 0 10 5 7 10 -3 6 -24 10
-46 10 -25 0 -42 5 -45 15 -7 17 -65 38 -86 30 -9 -4 -18 0 -21 9 -3 8 -15 20
-26 26 -18 9 -21 8 -21 -10z m128 -62 c22 -22 12 -29 -18 -13 -16 9 -30 18
-30 20 0 10 36 5 48 -7z m-13 -38 c10 -11 15 -20 12 -20 -14 0 -57 24 -57 32
0 15 27 8 45 -12z m-127 -37 c2 -8 -5 -13 -17 -13 -12 0 -21 6 -21 16 0 18 31
15 38 -3z m-94 -8 c-10 -8 -23 -14 -29 -14 -5 0 -1 6 9 14 11 8 24 15 30 15 5
0 1 -7 -10 -15z m236 -10 c11 -13 8 -15 -18 -15 -24 0 -30 4 -26 15 4 8 12 15
19 15 7 0 18 -7 25 -15z m-310 -25 c0 -5 -2 -10 -4 -10 -3 0 -8 5 -11 10 -3 6
-1 10 4 10 6 0 11 -4 11 -10z m-25 -9 c3 -5 1 -12 -5 -16 -5 -3 -10 1 -10 9 0
18 6 21 15 7z m188 -5 c3 -8 0 -17 -7 -19 -10 -4 -12 1 -9 14 6 23 9 24 16 5z
m77 -14 c0 -11 -71 -45 -78 -37 -3 3 -3 6 -1 8 56 33 79 42 79 29z m79 -73 c0
-74 -16 -67 -21 9 -2 35 1 52 9 52 7 0 11 -21 12 -61z m-89 27 c0 -2 -11 -6
-25 -8 -14 -3 -25 -1 -25 3 0 5 11 9 25 9 14 0 25 -2 25 -4z m-30 -67 c0 -29
-86 -176 -97 -166 -6 7 78 177 87 177 6 0 10 -5 10 -11z m109 -120 c-11 -59
-36 -115 -46 -105 -3 3 6 49 33 165 3 16 8 21 15 14 7 -7 7 -31 -2 -74z m-530
-83 c-2 -2 -14 -7 -26 -10 -17 -5 -23 -3 -23 8 0 17 30 27 44 14 5 -4 8 -9 5
-12z m361 -11 c0 -11 -12 -15 -51 -15 -28 0 -59 -5 -71 -11 -34 -18 -32 -1 3
20 41 25 119 29 119 6z m-290 -75 c20 -38 8 -44 -20 -10 -17 19 -30 38 -30 42
0 14 39 -11 50 -32z m100 14 c0 -3 -11 -19 -24 -35 -13 -15 -26 -34 -28 -40
-2 -7 -10 -10 -17 -8 -8 3 -2 18 18 47 27 37 51 54 51 36z m316 -97 c6 -23 15
-51 19 -62 8 -18 7 -19 -9 -6 -24 20 -46 65 -46 95 0 40 24 22 36 -27z m-530
-34 c-11 -11 -17 4 -9 23 7 18 8 18 11 1 2 -10 1 -21 -2 -24z m125 -25 c51
-28 73 -48 53 -48 -9 0 -124 70 -124 76 0 9 14 3 71 -28z m-107 -80 c5 -30 4
-38 -8 -38 -10 0 -15 15 -18 51 -5 80 10 72 26 -13z m1009 -15 c-5 -93 -25
-156 -60 -183 -37 -29 -51 -24 -21 8 38 41 48 65 48 121 0 41 24 131 35 131 1
0 0 -35 -2 -77z m-1088 26 c-10 -15 -25 -10 -19 6 4 8 10 12 15 9 5 -3 7 -10
4 -15z m447 -104 c37 -36 64 -65 60 -65 -12 0 -85 51 -119 83 -29 28 -31 37
-8 47 1 0 31 -29 67 -65z m-362 4 c0 -6 -4 -7 -10 -4 -5 3 -10 11 -10 16 0 6
5 7 10 4 6 -3 10 -11 10 -16z m580 -2 c0 -7 -9 -31 -19 -53 -19 -38 -19 -38
-26 -14 -8 33 10 80 30 80 8 0 15 -6 15 -13z m-502 -83 c-10 -10 -28 6 -28 24
0 15 1 15 17 -1 9 -9 14 -19 11 -23z m403 -61 c16 -26 27 -48 25 -50 -8 -8
-96 86 -96 101 0 28 38 0 71 -51z m117 1 c2 -30 -4 -50 -29 -88 -26 -38 -32
-57 -30 -94 1 -37 -1 -44 -11 -34 -7 7 -13 42 -14 81 -2 60 0 68 15 64 21 -5
41 34 41 83 0 50 24 39 28 -12z m-17 -132 c-6 -11 -11 -30 -11 -41 0 -12 -4
-21 -10 -21 -14 0 -13 43 2 75 7 15 15 22 21 16 5 -5 5 -17 -2 -29z m-351 -86
c0 -11 -19 -15 -25 -6 -3 5 1 10 9 10 9 0 16 -2 16 -4z m100 -10 c0 -11 -19
-15 -25 -6 -3 5 1 10 9 10 9 0 16 -2 16 -4z m125 -25 l40 -9 -40 0 c-22 0 -49
3 -60 8 l-20 9 20 0 c11 0 38 -4 60 -8z m163 -40 c4 -28 -13 -20 -21 9 -3 14
-1 20 6 17 7 -2 14 -14 15 -26z m59 -78 c-3 -10 -5 -4 -5 12 0 17 2 24 5 18 2
-7 2 -21 0 -30z m-47 -31 c0 -4 -16 -23 -35 -42 -42 -41 -46 -32 -7 16 26 33
42 43 42 26z m-106 -116 c-6 -16 -24 -23 -24 -8 0 10 22 33 27 28 2 -2 1 -11
-3 -20z m-34 -56 c0 -11 -7 -20 -15 -20 -15 0 -21 21 -8 33 12 13 23 7 23 -13z"/>
<path d="M1502 647 c-12 -13 -22 -28 -22 -35 0 -6 18 -32 40 -57 22 -25 40
-52 40 -60 0 -24 -51 -56 -84 -53 -25 2 -31 8 -31 27 0 18 8 27 35 38 l35 13
-40 -6 c-47 -7 -65 -19 -65 -45 0 -45 91 -53 139 -13 40 33 39 56 -4 108 -50
61 -43 96 18 96 36 0 34 -31 -3 -41 l-25 -7 26 -1 c15 -1 32 6 39 14 37 45
-57 66 -98 22z"/>
<path d="M1972 653 c-28 -14 -33 -21 -30 -47 2 -23 9 -32 26 -34 12 -2 22 1
22 7 0 6 -9 11 -20 11 -26 0 -27 36 -1 50 11 5 69 10 130 10 62 0 112 4 116
10 11 18 -205 12 -243 -7z"/>
<path d="M2073 625 c-6 -11 -14 -35 -18 -52 -5 -27 -12 -33 -33 -34 -24 -2
-24 -2 -4 -6 28 -5 29 -32 2 -61 -28 -30 -68 -38 -99 -21 -30 17 -41 49 -17
49 9 0 16 7 16 15 0 23 -38 18 -45 -6 -12 -36 24 -73 74 -77 53 -4 85 16 102
62 7 19 22 38 33 41 17 6 18 8 4 12 -13 3 -15 10 -6 39 11 43 6 67 -9 39z"/>
</g>
</svg>
