<?xml version="1.0" standalone="no"?>
<!DOCTYPE svg PUBLIC "-//W3C//DTD SVG 20010904//EN"
 "http://www.w3.org/TR/2001/REC-SVG-20010904/DTD/svg10.dtd">
<svg version="1.0" xmlns="http://www.w3.org/2000/svg"
 width="220.000000pt" height="229.000000pt" viewBox="0 0 220.000000 229.000000"
 preserveAspectRatio="xMidYMid meet">

<g transform="translate(0.000000,229.000000) scale(0.100000,-0.100000)"
fill="#000000" stroke="none">
<path d="M1108 2123 c18 -2 45 -2 60 0 15 2 0 4 -33 4 -33 0 -45 -2 -27 -4z"/>
<path d="M1253 2113 c15 -2 39 -2 55 0 15 2 2 4 -28 4 -30 0 -43 -2 -27 -4z"/>
<path d="M1363 2103 c9 -2 25 -2 35 0 9 3 1 5 -18 5 -19 0 -27 -2 -17 -5z"/>
<path d="M1555 2070 c148 -31 264 -65 315 -90 45 -23 74 -55 64 -71 -4 -8 -3
-10 4 -5 8 5 12 -2 13 -21 1 -18 3 -22 6 -10 7 26 -15 74 -45 97 -13 11 -66
33 -116 49 -93 30 -322 82 -354 80 -9 0 42 -13 113 -29z"/>
<path d="M1053 2073 c26 -2 67 -2 90 0 23 2 2 3 -48 3 -49 0 -68 -1 -42 -3z"/>
<path d="M840 2064 c-216 -33 -447 -89 -508 -124 -17 -11 -39 -17 -47 -14 -76
29 -16 -451 96 -772 46 -134 121 -278 196 -379 88 -119 277 -306 385 -382 l88
-61 52 27 c81 42 138 82 138 98 0 9 6 13 14 10 8 -3 20 2 28 11 12 16 11 16
-7 2 -20 -15 -20 -15 -1 8 11 12 25 21 32 18 7 -3 20 4 30 15 9 10 13 19 9 19
-5 0 4 13 20 30 33 35 57 41 29 8 -10 -13 -2 -7 19 11 36 34 47 48 27 36 -5
-3 -10 -2 -10 3 0 12 35 43 42 37 2 -3 18 9 34 27 16 17 23 28 17 24 -22 -12
-14 10 9 30 22 19 23 19 8 -1 -15 -20 -14 -20 8 -1 23 20 30 32 12 21 -17 -10
-11 12 7 26 14 12 16 12 8 0 -6 -10 -4 -12 4 -7 7 5 10 10 7 13 -8 9 14 44 24
38 5 -3 12 0 16 6 5 8 3 9 -6 4 -8 -5 -11 -3 -8 6 3 8 10 14 15 14 6 0 15 4
20 9 5 5 2 6 -6 1 -9 -5 -12 -3 -9 6 3 8 11 13 17 11 7 -1 10 2 6 7 -8 14 24
73 35 66 6 -4 7 1 3 11 -4 12 -3 15 5 10 8 -5 10 -1 5 10 -5 13 -3 15 7 9 9
-5 11 -4 6 4 -4 7 6 47 22 89 44 110 100 295 117 386 8 43 24 151 35 240 25
201 27 196 -113 244 -112 38 -309 80 -400 87 -65 4 -55 1 56 -16 112 -18 70
-20 -54 -3 -133 19 -417 22 -534 6 -159 -22 -174 -23 -105 -7 36 9 108 19 160
24 82 7 86 8 30 8 -36 0 -76 -1 -90 -3z m-195 -54 c-16 -4 -39 -8 -50 -8 -16
0 -15 2 5 8 14 4 36 8 50 8 22 0 22 -1 -5 -8z m898 3 c-7 -2 -19 -2 -25 0 -7
3 -2 5 12 5 14 0 19 -2 13 -5z m-495 -20 c12 -10 25 -34 31 -53 5 -19 10 -27
10 -18 1 11 6 15 16 12 12 -5 15 3 15 35 0 46 10 50 69 30 23 -8 34 -19 38
-40 7 -35 24 -33 40 3 16 38 58 47 86 20 17 -17 18 -23 7 -36 -10 -14 -9 -16
7 -16 10 0 24 -5 31 -12 9 -9 12 -4 12 25 0 26 4 37 15 37 11 0 15 -11 15 -40
0 -28 4 -40 14 -40 8 0 21 -3 30 -6 13 -5 16 2 16 35 0 41 14 56 22 24 3 -10
3 -53 1 -97 -3 -73 -2 -78 14 -65 15 12 16 12 11 -2 -4 -9 -1 -22 5 -29 10
-10 8 -10 -10 -1 -30 15 -38 14 -23 -4 7 -8 20 -15 29 -15 10 0 12 -3 5 -8 -8
-5 -9 -23 -4 -54 4 -27 4 -48 1 -48 -4 0 -7 -9 -7 -20 0 -11 3 -20 6 -20 3 0
6 -9 6 -20 0 -11 -3 -20 -6 -20 -4 0 -5 -17 -4 -37 3 -51 -12 -127 -25 -131
-6 -2 -11 -10 -11 -19 0 -8 -9 -26 -20 -40 l-20 -26 0 32 c0 17 -15 62 -34 99
-28 57 -33 75 -29 113 3 25 0 55 -6 66 -14 27 -71 53 -113 52 -30 -1 -29 -2
17 -14 52 -15 95 -52 95 -84 0 -20 -39 -74 -40 -54 0 10 -46 33 -80 39 -8 1
-29 7 -46 12 -36 11 -66 -1 -57 -24 4 -10 13 -14 28 -10 28 7 103 -40 134 -83
12 -17 28 -61 35 -98 l13 -68 4 44 c2 25 9 46 15 48 19 6 24 -53 9 -104 -16
-56 -14 -102 6 -130 19 -26 95 -55 123 -47 17 5 19 4 9 -6 -11 -12 -27 -14
-106 -10 -21 1 -44 -3 -51 -9 -15 -13 -32 1 -22 18 3 5 -1 12 -10 15 -27 10
-38 6 -20 -7 17 -13 17 -14 1 -30 -9 -9 -12 -17 -6 -17 5 0 13 5 16 10 5 8 11
8 20 0 9 -8 15 -8 20 0 10 16 23 12 30 -10 4 -12 1 -27 -5 -35 -10 -12 -10
-15 0 -15 8 0 11 -10 8 -29 -2 -17 -1 -28 3 -26 11 8 20 -26 10 -39 -15 -18
-15 -20 -2 -44 10 -18 9 -23 -4 -28 -28 -11 -45 14 -39 59 3 23 7 48 10 55 6
20 -24 72 -42 72 -25 0 -74 -56 -74 -84 0 -35 -33 -66 -71 -66 -43 0 -67 16
-83 53 -14 33 -18 30 -30 -26 -4 -17 -11 -25 -18 -21 -8 5 -9 2 -5 -10 5 -12
0 -19 -15 -25 -32 -11 -58 -2 -58 21 0 12 4 17 13 12 6 -4 9 -4 5 1 -4 4 2 19
12 33 11 13 20 29 20 33 0 16 -20 9 -27 -8 -4 -10 -21 -32 -37 -49 -36 -36
-51 -55 -55 -69 -10 -30 -16 -35 -41 -35 -35 0 -44 13 -36 46 5 18 12 24 22
20 8 -3 12 -2 9 4 -3 5 4 14 16 20 32 18 50 70 38 114 -5 20 -14 36 -19 36
-14 0 -45 -51 -60 -97 -7 -24 -21 -50 -32 -59 -10 -10 -18 -27 -18 -39 0 -32
-28 -95 -45 -102 -24 -9 -65 6 -65 23 0 9 18 39 40 66 22 28 40 60 40 72 0 11
7 34 15 49 8 16 13 43 12 60 -2 18 2 52 9 77 7 25 15 63 19 85 10 64 16 79 25
65 5 -7 8 -2 8 14 0 35 -6 33 -26 -11 -10 -21 -23 -39 -30 -40 -15 -4 -16 9
-1 24 8 8 6 13 -7 17 -17 6 -64 101 -66 134 -1 6 -4 12 -7 12 -4 0 -17 27 -31
61 -13 34 -30 63 -37 66 -7 3 -13 12 -13 19 0 22 -49 114 -61 114 -5 0 -7 5
-4 10 3 6 1 10 -5 10 -6 0 -9 4 -6 8 3 5 -5 19 -18 33 -14 16 -22 34 -19 49 1
14 0 21 -4 15 -5 -5 -18 -11 -31 -12 -21 -3 -22 0 -16 39 6 33 4 40 -7 34 -8
-4 -5 0 6 9 19 16 19 17 -15 11 -28 -5 -31 -4 -12 4 12 5 22 15 22 22 0 10 3
9 9 -1 7 -11 12 -3 21 28 6 24 10 44 8 45 -2 1 -31 -2 -65 -7 l-62 -9 6 -86
c3 -48 7 -89 9 -91 2 -2 15 1 29 7 20 9 25 9 25 -2 0 -8 -14 -19 -31 -25 -59
-20 -59 -20 -59 89 0 97 -1 100 -22 100 -21 1 -22 2 -5 14 16 12 198 56 234
56 15 0 15 -2 -1 -13 -17 -13 -18 -19 -6 -66 10 -42 15 -50 26 -40 11 9 14 8
14 -5 0 -10 5 -14 10 -11 6 3 10 35 10 71 0 51 3 64 15 64 9 0 18 -8 22 -17 3
-10 13 -34 21 -53 l15 -35 19 63 c12 37 25 62 34 62 11 0 14 -15 14 -62 0 -39
4 -58 9 -50 4 8 12 12 17 10 5 -1 10 21 12 49 3 48 6 54 29 59 54 14 89 -28
72 -85 -2 -7 2 -16 10 -19 8 -3 11 0 7 7 -4 6 -1 11 8 11 10 0 16 9 16 25 0
25 39 75 58 75 6 0 19 -8 30 -17z m545 10 c-7 -2 -19 -2 -25 0 -7 3 -2 5 12 5
14 0 19 -2 13 -5z m-1 -80 c6 -52 -4 -164 -14 -161 -5 2 -9 7 -9 11 1 4 1 45
1 92 0 47 4 85 9 85 5 0 11 -12 13 -27z m101 -50 l25 -68 7 52 c11 80 25 53
25 -48 0 -111 -16 -118 -50 -22 -25 71 -38 68 -39 -9 -1 -21 -5 -38 -11 -38
-6 0 -10 40 -10 100 0 123 15 133 53 33z m127 -84 c0 -76 -2 -89 -16 -89 -15
0 -16 11 -11 88 4 48 7 91 7 95 0 5 5 5 10 2 6 -3 10 -46 10 -96z m-1496 -224
c10 -101 -2 -47 -19 80 -8 65 -14 140 -14 165 1 39 12 -41 33 -245z m75 -303
c45 -148 84 -245 134 -334 78 -136 224 -308 367 -432 l55 -48 -64 49 c-127 96
-305 308 -381 455 -22 42 -56 118 -76 168 -39 102 -104 332 -103 364 0 12 9
-10 19 -49 10 -38 32 -117 49 -173z m1111 -555 c0 -2 -10 -12 -22 -23 l-23
-19 19 23 c18 21 26 27 26 19z m-170 -171 c0 -2 -8 -10 -17 -17 -16 -13 -17
-12 -4 4 13 16 21 21 21 13z"/>
<path d="M1000 1961 c-5 -11 -10 -27 -10 -37 0 -13 3 -14 14 -5 11 9 16 9 21
0 11 -17 28 17 20 41 -8 25 -31 26 -45 1z"/>
<path d="M1142 1954 c2 -15 10 -29 18 -31 13 -4 13 -3 0 7 -12 9 -10 11 13 7
24 -4 28 -1 25 17 -2 15 -11 22 -31 24 -26 3 -28 1 -25 -24z"/>
<path d="M850 1940 c0 -26 2 -28 23 -21 12 4 23 18 25 30 3 17 -2 21 -22 21
-22 0 -26 -4 -26 -30z"/>
<path d="M1296 1955 c-9 -25 -8 -27 15 -14 15 8 19 8 15 0 -4 -6 -2 -11 4 -11
17 0 7 34 -11 38 -9 2 -19 -4 -23 -13z"/>
<path d="M540 1885 c0 -11 -3 -30 -6 -42 -5 -18 -3 -21 15 -16 17 4 20 10 15
32 -8 34 -24 51 -24 26z"/>
<path d="M671 1848 c0 -31 3 -37 8 -24 7 18 3 66 -5 66 -2 0 -4 -19 -3 -42z"/>
<path d="M739 1862 c-3 -20 -2 -29 4 -23 5 5 7 19 5 32 -3 20 -5 19 -9 -9z"/>
<path d="M1474 1863 c15 -4 16 -7 5 -14 -11 -7 -11 -9 -1 -9 7 0 10 -4 7 -10
-3 -5 -1 -10 5 -10 21 0 6 45 -15 47 -18 2 -18 1 -1 -4z"/>
<path d="M1079 1751 c-62 -20 -95 -53 -83 -85 7 -19 65 -36 114 -35 25 1 18 4
-25 10 -91 14 -110 50 -41 83 36 17 140 14 206 -6 31 -10 32 -12 15 -19 -19
-8 -19 -9 -1 -6 34 4 28 24 -11 40 -48 19 -140 29 -174 18z"/>
<path d="M1180 1710 c0 -6 7 -10 15 -10 8 0 15 2 15 4 0 2 -7 6 -15 10 -8 3
-15 1 -15 -4z"/>
<path d="M1025 1690 c-9 -14 3 -30 22 -30 12 0 13 3 4 14 -10 12 -8 15 11 19
21 4 20 4 -4 6 -15 0 -30 -3 -33 -9z"/>
<path d="M1212 1685 c-7 -8 -9 -15 -4 -15 5 0 15 7 22 15 16 19 -1 19 -18 0z"/>
<path d="M1208 1653 c6 -2 18 -2 25 0 6 3 1 5 -13 5 -14 0 -19 -2 -12 -5z"/>
<path d="M1240 1621 c102 -6 117 -11 130 -45 7 -16 9 -17 9 -4 1 9 -11 26 -25
37 -23 18 -39 21 -118 19 l-91 -2 95 -5z"/>
<path d="M1027 1496 c-54 -33 -59 -42 -10 -17 23 11 44 25 48 31 9 14 5 13
-38 -14z"/>
<path d="M1205 1472 c15 -23 30 -40 32 -38 7 7 -13 39 -38 61 -19 17 -18 14 6
-23z"/>
<path d="M1101 1436 c-9 -11 -7 -18 6 -32 10 -9 25 -36 35 -58 l16 -41 -31
-34 -32 -34 28 18 c23 15 30 16 37 5 4 -7 12 -10 17 -7 5 3 10 0 10 -8 0 -8
-7 -15 -16 -16 -9 0 -11 -3 -5 -5 6 -3 22 0 37 5 23 9 25 14 21 56 -6 58 -25
97 -61 124 -16 11 -33 25 -40 30 -7 7 -15 6 -22 -3z"/>
<path d="M935 1409 c-9 -17 -15 -34 -13 -39 2 -5 11 9 20 30 20 47 15 53 -7 9z"/>
<path d="M911 1337 c-1 -10 -8 -31 -16 -47 -9 -17 -11 -30 -6 -30 12 0 34 66
28 83 -3 7 -6 4 -6 -6z"/>
<path d="M1079 1193 c-16 -50 -38 -83 -55 -83 -8 0 -14 -4 -14 -9 0 -5 14 -8
31 -6 21 3 29 0 26 -8 -2 -7 -17 -11 -35 -9 -27 3 -32 0 -32 -17 0 -17 6 -21
30 -21 17 0 30 -4 30 -10 0 -5 4 -10 10 -10 5 0 7 13 4 28 -5 22 2 37 30 71
20 24 36 44 36 46 0 1 -10 1 -22 1 -34 -3 -38 2 -27 31 5 14 8 28 5 30 -2 2
-10 -13 -17 -34z m14 -70 c-14 -21 -17 -23 -25 -8 -12 20 7 46 27 38 12 -4 11
-9 -2 -30z"/>
<path d="M1220 1171 c0 -16 7 -34 15 -41 13 -11 13 -15 3 -23 -9 -6 -8 -7 5
-3 10 3 26 6 35 6 15 1 15 2 0 11 -10 5 -18 17 -18 24 0 8 -6 15 -12 15 -10 0
-9 3 1 9 16 10 6 31 -15 31 -9 0 -14 -10 -14 -29z"/>
<path d="M1399 1103 c-13 -16 -12 -17 4 -4 16 13 21 21 13 21 -2 0 -10 -8 -17
-17z"/>
<path d="M1123 1050 c-32 -13 -29 -15 20 -17 31 -2 37 0 22 7 -16 7 -17 9 -3
9 23 1 33 -18 14 -25 -9 -3 -16 -12 -16 -19 0 -7 -6 -15 -12 -18 -7 -2 -1 -4
15 -4 15 0 27 5 27 12 0 23 25 35 56 26 19 -5 28 -13 26 -24 -4 -21 14 -22 22
-1 4 11 -5 19 -32 30 -20 8 -45 19 -54 24 -21 12 -55 12 -85 0z"/>
<path d="M867 1026 c-6 -15 1 -26 15 -26 11 0 10 27 -1 34 -5 3 -11 0 -14 -8z"/>
<path d="M1135 960 c3 -5 8 -10 11 -10 2 0 4 5 4 10 0 6 -5 10 -11 10 -5 0 -7
-4 -4 -10z"/>
<path d="M1168 963 c7 -3 16 -2 19 1 4 3 -2 6 -13 5 -11 0 -14 -3 -6 -6z"/>
<path d="M846 925 c-9 -26 -7 -32 5 -12 6 10 9 21 6 23 -2 3 -7 -2 -11 -11z"/>
<path d="M996 913 c-6 -14 -5 -15 5 -6 7 7 10 15 7 18 -3 3 -9 -2 -12 -12z"/>
<path d="M1077 904 c-20 -27 -14 -32 10 -9 8 8 13 19 11 24 -2 5 -11 -2 -21
-15z"/>
<path d="M1173 912 c-7 -4 -9 -13 -4 -21 6 -9 10 -7 14 8 3 12 4 21 4 21 -1 0
-7 -4 -14 -8z"/>
<path d="M1228 2063 c18 -2 45 -2 60 0 15 2 0 4 -33 4 -33 0 -45 -2 -27 -4z"/>
<path d="M1860 1956 c0 -2 7 -7 16 -10 8 -3 12 -2 9 4 -6 10 -25 14 -25 6z"/>
<path d="M1953 1755 c0 -27 2 -38 4 -22 2 15 2 37 0 50 -2 12 -4 0 -4 -28z"/>
<path d="M1902 1735 c0 -16 2 -22 5 -12 2 9 2 23 0 30 -3 6 -5 -1 -5 -18z"/>
<path d="M1942 1670 c0 -19 2 -27 5 -17 2 9 2 25 0 35 -3 9 -5 1 -5 -18z"/>
<path d="M1891 1654 c0 -11 3 -14 6 -6 3 7 2 16 -1 19 -3 4 -6 -2 -5 -13z"/>
<path d="M1932 1595 c0 -16 2 -22 5 -12 2 9 2 23 0 30 -3 6 -5 -1 -5 -18z"/>
<path d="M1882 1570 c0 -14 2 -19 5 -12 2 6 2 18 0 25 -3 6 -5 1 -5 -13z"/>
<path d="M1922 1525 c0 -16 2 -22 5 -12 2 9 2 23 0 30 -3 6 -5 -1 -5 -18z"/>
<path d="M1871 1504 c0 -11 3 -14 6 -6 3 7 2 16 -1 19 -3 4 -6 -2 -5 -13z"/>
<path d="M1911 1464 c0 -11 3 -14 6 -6 3 7 2 16 -1 19 -3 4 -6 -2 -5 -13z"/>
<path d="M1861 1454 c0 -11 3 -14 6 -6 3 7 2 16 -1 19 -3 4 -6 -2 -5 -13z"/>
<path d="M1736 1065 c-9 -26 -7 -32 5 -12 6 10 9 21 6 23 -2 3 -7 -2 -11 -11z"/>
</g>
</svg>
